# xmcd
#
# Track frame offsets:
#	150
#	23092
#	41311
#	62935
#	87892
#	110997
#	135221
#	152852
#	172797
#	192750
#
# Disc length: 2922 seconds
#
# Revision: 10
# Processed by: cddbd v1.5.2PL0 Copyright (c) Steve Scherf et al.
# Submitted via: Jack! The Knife 20 Magnifico
#
DISCID=770b680a
DTITLE=Gamma Ray - To The Metal !
DYEAR=2010
DGENRE=Metal
TTITLE0=Empathy
TTITLE1=All You Need To Know
TTITLE2=Time To Live
TTITLE3=To The Metal
TTITLE4=Rise
TTITLE5=Mother Angel
TTITLE6=Shine Forever
TTITLE7=Deadlands
TTITLE8=Chasing Shadows
TTITLE9=No Need To Cry
EXTD=Dirk Schlächter and Kai Hansen
EXTT0=Kai Hansen
EXTT1=Kai Hansen
EXTT2=Henjo Richter
EXTT3=Kai Hansen
EXTT4=Dan Zimmermann
EXTT5=Kai Hansen
EXTT6=Dirk Schlächter
EXTT7=Kai Hansen
EXTT8=Henjo Richter
EXTT9=Dirk Schlächter
PLAYORDER=
